# xmcd
#
# Track frame offsets: 
#        150
#        22942
#        42177
#        65751
#        88216
#        110918
#        128328
#        150414
#        169621
#        190593
#        209989
#        228188
#        249123
#
# Disc length: 3511 seconds
#
# Revision: 2
# Processed by: cddbd v1.5.2PL0 Copyright (c) Steve Scherf et al.
# Submitted via: ExactAudioCopy v0.99pb5
#
DISCID=a40db50d
DTITLE=Hitomi Shimatani - ??+LOVE LETTER
DYEAR=2004
DGENRE=J-Pop
TTITLE0=??+LOVE LETTER
TTITLE1=ANGELUS -??????- 
TTITLE2=?????? (Mata ne., see you)
TTITLE3=??-kuon- (Kuon, eternity)
TTITLE4=Z! Z! Z! -Zip! Zap! Zipangu!-
TTITLE5=Domenica
TTITLE6=Jewel of Kiss
TTITLE7=???? (Hatsukoi, first love)
TTITLE8=Viola
TTITLE9=??????? (Hanamuke no Kotoba, parting words)
TTITLE10=YUME?? (Album Version) (YUME Biyori, weather of our dreams)
TTITLE11=??? (Kiraboshi, shining star)
TTITLE12=???????? (Bonus Track) (Tenohira wo Taiyou ni, the sun throug
TTITLE12=h my palms)
EXTD=YEAR: 2004
EXTT0=
EXTT1=
EXTT2=
EXTT3=
EXTT4=
EXTT5=
EXTT6=
EXTT7=
EXTT8=
EXTT9=
EXTT10=
EXTT11=
EXTT12=
PLAYORDER=
